<svg viewBox="0 0 40 40" fill="none" xmlns="http://www.w3.org/2000/svg">
<path fill-rule="evenodd" clip-rule="evenodd" d="M18.9119 9.71911C18.7652 12.4826 18.3727 14.2381 17.7411 14.9558C17.3878 15.3572 17.2078 15.6176 16.5367 16.6987C16.1708 17.2881 15.7231 17.9663 15.5419 18.2059L15.2123 18.6415V24.6497V30.6579L21.7689 30.6572C27.0634 30.6567 28.3798 30.6421 28.6075 30.5811C29.3142 30.3921 29.9055 29.9162 30.2095 29.2919C30.3599 28.9827 30.4866 28.3746 31.2055 24.5102C32.1084 19.656 32.1102 19.6405 31.8516 18.9635C31.616 18.3467 31.0558 17.803 30.401 17.5555C30.0782 17.4335 30.0257 17.4317 26.3387 17.4156L22.6035 17.3992L22.588 14.1161L22.5726 10.833L22.4343 10.551C22.1616 9.99508 21.5423 9.53987 20.7114 9.28449C20.3247 9.16565 19.3895 9.00102 19.0975 9.00034L18.9501 9L18.9119 9.71911ZM8.60819 18.7758C8.47148 18.8479 8.28349 19.0151 8.19043 19.1472L8.02123 19.3874L8.00628 24.572C7.99179 29.5932 7.99472 29.7632 8.0998 29.9676C8.23905 30.2383 8.47356 30.4597 8.73854 30.5703C8.91417 30.6437 9.25996 30.6579 10.8677 30.6579H12.7871V24.6512V18.6445H10.8219C8.87362 18.6445 8.85467 18.6457 8.60819 18.7758Z" fill="blue"/>
</svg>
